{"title":"The Alchemist Cookbook 2016 WEB-DL XviD AC3-FGT","uid":15979457,"size":1510411752,"categoryP":"video","categoryS":"movies","magnet":"?xt=urn:btih:c72b99b2475d6736876ae0f6162303f2b62d5e6c&amp;dn=The+Alchemist+Cookbook+2016+WEB-DL+XviD+AC3-FGT&amp;tr=udp%3A%2F%2Ftracker.leechers-paradise.org%3A6969&amp;tr=udp%3A%2F%2Fzer0day.ch%3A1337&amp;tr=udp%3A%2F%2Fopen.demonii.com%3A1337&amp;tr=udp%3A%2F%2Ftracker.coppersurfer.tk%3A6969&amp;tr=udp%3A%2F%2Fexodus.desync.com%3A6969","seeders":4,"leechers":0,"uploader":"PirateNeon2","files":1,"time":1475880103,"description":"Plot:\tSuffering from delusions of fortune| a young hermit hides out in the forest hoping to crack an ancient mystery| but pays a price for his mania.\r\n\r\nVideo\r\nID                                       : 0\r\nFormat                                   : MPEG-4 Visual\r\nFormat profile                           :   \r\nFormat settings, BVOP                    : No\r\nFormat settings, QPel                    : No\r\nFormat settings, GMC                     : No warppoints\r\nFormat settings, Matrix                  : Default (H.263)\r\nCodec ID                                 : XVID\r\nCodec ID/Hint                            : XviD\r\nDuration                                 : 1h 22mn\r\nBit rate                                 : 2 049 Kbps\r\nWidth                                    : 720 pixels\r\nHeight                                   : 384 pixels\r\nDisplay aspect ratio                     : 1.85:1\r\nFrame rate                               : 24.000 fps\r\nColor space                              : YUV\r\nChroma subsampling                       : 4:2:0\r\nBit depth                                : 8 bits\r\nScan type                                : Progressive\r\nCompression mode                         : Lossy\r\nBits/(Pixel*Frame)                       : 0.309\r\nStream size                              : 1.18 GiB (84%)\r\nWriting library                          : Lavc57.16.101\r\n\r\nAudio\r\nID                                       : 1\r\nFormat                                   : AC-3\r\nFormat/Info                              : Audio Coding 3\r\nMode extension                           : CM (complete main)\r\nFormat settings, Endianness              : Big\r\nCodec ID                                 : 2000\r\nDuration                                 : 1h 22mn\r\nBit rate mode                            : Constant\r\nBit rate                                 : 384 Kbps\r\nChannel(s)                               : 6 channels\r\nChannel positions                        : Front: L C R, Side: L R, LFE\r\nSampling rate                            : 48.0 KHz\r\nFrame rate                               : 31.250 fps (1536 spf)\r\nCompression mode                         : Lossy\r\nStream size                              : 226 MiB (16%)\r\nAlignment                                : Aligned on interleaves\r\nInterleave, duration                     : 42 ms (1.00 video frame)\r\nInterleave, preload duration             : 512 ms","torrent":{"xt":"urn:btih:c72b99b2475d6736876ae0f6162303f2b62d5e6c","amp;dn":"The+Alchemist+Cookbook+2016+WEB-DL+XviD+AC3-FGT","amp;tr":["udp%3A%2F%2Ftracker.leechers-paradise.org%3A6969","udp%3A%2F%2Fzer0day.ch%3A1337","udp%3A%2F%2Fopen.demonii.com%3A1337","udp%3A%2F%2Ftracker.coppersurfer.tk%3A6969","udp%3A%2F%2Fexodus.desync.com%3A6969"],"infoHash":"c72b99b2475d6736876ae0f6162303f2b62d5e6c","infoHashBuffer":{"type":"Buffer","data":[199,43,153,178,71,93,103,54,135,106,224,246,22,35,3,242,182,45,94,108]},"announce":[],"urlList":[]}}